<svg width="61" height="57" viewBox="0 0 61 57" fill="none" xmlns="http://www.w3.org/2000/svg">
<path d="M37.4143 0.966883C37.2279 0.990239 37.057 1.08267 36.9355 1.22591C36.814 1.36915 36.7506 1.55278 36.7579 1.74049V40.473C31.5837 40.3744 29.7625 39.2222 27.7091 37.9647C25.563 36.6504 27.6121 35.2453 21.5437 35.2453H18.0039V19.4919H19.387C24.2343 19.4919 26.6825 20.7801 28.342 23.36C30.0015 25.9398 30.787 29.9957 31.6943 35.3625C31.7285 35.5615 31.8403 35.7387 32.0052 35.8552C32.1701 35.9717 32.3744 36.018 32.5734 35.9838C32.7724 35.9496 32.9496 35.8377 33.0661 35.6729C33.1826 35.508 33.2288 35.3036 33.1946 35.1047C32.2852 29.7251 31.5268 25.5225 29.6079 22.5395C27.689 19.5564 24.5225 17.9916 19.387 17.9916H17.2537C17.2069 17.9872 17.1598 17.9872 17.113 17.9916C16.9393 18.0248 16.7829 18.1182 16.6714 18.2555C16.5599 18.3927 16.5004 18.565 16.5035 18.7418V35.2453H0.750156C0.703374 35.2409 0.656282 35.2409 0.6095 35.2453C0.435786 35.2785 0.279365 35.3719 0.167845 35.5092C0.0563259 35.6464 -0.00312179 35.8187 -5.49127e-06 35.9955V49.4984C-0.00141133 49.5978 0.0169536 49.6965 0.0540219 49.7887C0.0910902 49.881 0.146123 49.9649 0.215921 50.0357C0.285719 50.1065 0.368892 50.1627 0.460604 50.2011C0.552317 50.2395 0.650741 50.2592 0.750156 50.2592C0.849571 50.2592 0.947995 50.2395 1.03971 50.2011C1.13142 50.1627 1.21459 50.1065 1.28439 50.0357C1.35419 49.9649 1.40922 49.881 1.44629 49.7887C1.48336 49.6965 1.50172 49.5978 1.50032 49.4984V36.7456H21.5437C27.3917 36.7456 24.7943 37.9426 26.9355 39.254C28.9884 40.5112 31.3193 41.8628 36.7579 41.9733V48.7482H32.5851C31.6953 46.5463 29.5208 44.9974 27.0058 44.9974C23.7003 44.9974 21.0045 47.6932 21.0045 50.9987C21.0045 54.3043 23.7003 57 27.0058 57C30.3113 57 33.0071 54.3043 33.0071 50.9987C33.0071 50.7505 32.9897 50.4889 32.9602 50.2486H36.7579V52.499C36.7579 52.698 36.837 52.8888 36.9776 53.0295C37.1183 53.1701 37.3091 53.2492 37.5081 53.2492H59.2627C59.3621 53.2506 59.4608 53.2322 59.5531 53.1952C59.6453 53.1581 59.7293 53.1031 59.8001 53.0333C59.8709 52.9635 59.9271 52.8803 59.9654 52.7886C60.0038 52.6969 60.0236 52.5984 60.0236 52.499C60.0236 52.3996 60.0038 52.3012 59.9654 52.2095C59.9271 52.1178 59.8709 52.0346 59.8001 51.9648C59.7293 51.895 59.6453 51.84 59.5531 51.8029C59.4608 51.7658 59.3621 51.7475 59.2627 51.7489H38.2582V1.74049C38.2625 1.63162 38.243 1.52313 38.2011 1.42256C38.1591 1.32199 38.0958 1.23176 38.0155 1.15813C37.9352 1.08451 37.8398 1.02927 37.736 0.996239C37.6321 0.963211 37.5224 0.953193 37.4143 0.966883ZM41.8684 31.8462C41.699 31.8841 41.548 31.9796 41.4411 32.1164C41.3343 32.2532 41.2781 32.4228 41.2823 32.5963V47.9277C41.2823 48.1267 41.3614 48.3175 41.502 48.4582C41.6427 48.5988 41.8335 48.6779 42.0325 48.6779H59.2627C59.4617 48.6779 59.6525 48.5988 59.7932 48.4582C59.9338 48.3175 60.0129 48.1267 60.0129 47.9277V32.5963C60.0129 32.3974 59.9338 32.2066 59.7932 32.0659C59.6525 31.9252 59.4617 31.8462 59.2627 31.8462H42.0325C41.9779 31.8402 41.9229 31.8402 41.8684 31.8462ZM42.7826 33.3465H58.5126V47.1776H42.7826V33.3465ZM11.2524 44.9974C7.94688 44.9974 5.25112 47.6932 5.25112 50.9987C5.25112 54.3042 7.94688 57 11.2524 57C14.5579 57 17.2537 54.3042 17.2537 50.9987C17.2537 50.7505 17.2363 50.4889 17.2068 50.2486H21.5671C21.6665 50.25 21.7652 50.2316 21.8575 50.1945C21.9497 50.1575 22.0337 50.1024 22.1045 50.0326C22.1753 49.9628 22.2315 49.8797 22.2698 49.7879C22.3082 49.6962 22.328 49.5978 22.328 49.4984C22.328 49.399 22.3082 49.3005 22.2698 49.2088C22.2315 49.1171 22.1753 49.034 22.1045 48.9642C22.0337 48.8944 21.9497 48.8393 21.8575 48.8023C21.7652 48.7652 21.6665 48.7468 21.5671 48.7482H16.8317C15.9419 46.5463 13.7674 44.9974 11.2524 44.9974ZM11.2524 46.4977C13.7471 46.4977 15.7534 48.5041 15.7534 50.9987C15.7534 53.4934 13.7471 55.4997 11.2524 55.4997C8.75771 55.4997 6.75145 53.4934 6.75145 50.9987C6.75145 48.5041 8.75771 46.4977 11.2524 46.4977ZM27.0058 46.4977C29.5005 46.4977 31.5068 48.5041 31.5068 50.9987C31.5068 53.4934 29.5005 55.4997 27.0058 55.4997C24.5111 55.4997 22.5048 53.4934 22.5048 50.9987C22.5048 48.5041 24.5111 46.4977 27.0058 46.4977Z" fill="white" fill-opacity="0.6"/>
<path fill-rule="evenodd" clip-rule="evenodd" d="M17.113 17.9916C17.1598 17.9872 17.2069 17.9872 17.2537 17.9916H19.387C24.5225 17.9916 27.689 19.5564 29.6079 22.5395C31.5268 25.5225 32.2852 29.7251 33.1946 35.1047C33.2288 35.3036 33.1826 35.508 33.0661 35.6729C32.9496 35.8377 32.7724 35.9496 32.5734 35.9838C32.3744 36.018 32.1701 35.9717 32.0052 35.8552C31.8403 35.7387 31.7285 35.5615 31.6943 35.3625C30.787 29.9957 30.0015 25.9398 28.342 23.36C26.6825 20.7801 24.2343 19.4919 19.387 19.4919H18.0039V35.2453H21.5437C25.6585 35.2453 26.041 35.8913 26.53 36.717C26.7621 37.1091 27.0182 37.5416 27.7091 37.9647L27.7813 38.0089C29.6679 39.1647 31.3932 40.2217 35.7579 40.4391C36.0768 40.455 36.4097 40.4664 36.7579 40.473V1.74049C36.7506 1.55278 36.814 1.36915 36.9355 1.22591C37.057 1.08267 37.2279 0.990239 37.4143 0.966883C37.5224 0.953193 37.6321 0.963211 37.736 0.996239C37.8398 1.02927 37.9352 1.08451 38.0155 1.15813C38.0958 1.23176 38.1591 1.32199 38.2011 1.42256C38.243 1.52313 38.2625 1.63162 38.2582 1.74049V51.7489H59.2627C59.3621 51.7475 59.4608 51.7658 59.5531 51.8029C59.6453 51.84 59.7293 51.895 59.8001 51.9648C59.8709 52.0346 59.9271 52.1178 59.9654 52.2095C60.0038 52.3012 60.0236 52.3996 60.0236 52.499C60.0236 52.5984 60.0038 52.6969 59.9654 52.7886C59.9271 52.8803 59.8709 52.9635 59.8001 53.0333C59.7293 53.1031 59.6453 53.1581 59.5531 53.1952C59.4608 53.2322 59.3621 53.2506 59.2627 53.2492H37.5081C37.3091 53.2492 37.1183 53.1701 36.9776 53.0295C36.837 52.8888 36.7579 52.698 36.7579 52.499V50.2486H32.9602C32.9897 50.4889 33.0071 50.7505 33.0071 50.9987C33.0071 51.0824 33.0054 51.1657 33.0019 51.2486C32.8702 54.4391 30.2277 57 27.0058 57C23.7839 57 21.1414 54.4391 21.0097 51.2486C21.0062 51.1657 21.0045 51.0824 21.0045 50.9987C21.0045 50.7447 21.0204 50.4944 21.0513 50.2486H17.2068C17.2363 50.4889 17.2537 50.7505 17.2537 50.9987C17.2537 51.0824 17.252 51.1657 17.2486 51.2486C17.1168 54.439 14.4743 57 11.2524 57C7.94688 57 5.25112 54.3042 5.25112 50.9987C5.25112 47.6932 7.94688 44.9974 11.2524 44.9974C13.7674 44.9974 15.9419 46.5463 16.8317 48.7482H21.4434C21.4811 48.6555 21.5211 48.564 21.5632 48.4736C21.5645 48.4708 21.5658 48.4681 21.5671 48.4653C21.6772 48.2303 21.8021 48.0035 21.9406 47.7862C23.0073 46.1118 24.8805 44.9974 27.0058 44.9974C29.5208 44.9974 31.6953 46.5463 32.5851 48.7482H36.7579V41.9733C31.3193 41.8628 28.9884 40.5112 26.9355 39.254C26.1975 38.802 26.0224 38.3637 25.8705 37.9832C25.5815 37.2597 25.3762 36.7456 21.5437 36.7456H1.50032V49.4984C1.50172 49.5978 1.48336 49.6965 1.44629 49.7887C1.40922 49.881 1.35419 49.9649 1.28439 50.0357C1.21459 50.1065 1.13142 50.1627 1.03971 50.2011C0.947995 50.2395 0.849571 50.2592 0.750156 50.2592C0.650741 50.2592 0.552317 50.2395 0.460604 50.2011C0.368892 50.1627 0.285719 50.1065 0.215921 50.0357C0.146123 49.9649 0.0910902 49.881 0.0540219 49.7887C0.0169536 49.6965 -0.00141133 49.5978 -5.49127e-06 49.4984V35.9955C-0.00312179 35.8187 0.0563259 35.6464 0.167845 35.5092C0.279365 35.3719 0.435786 35.2785 0.6095 35.2453C0.656282 35.2409 0.703374 35.2409 0.750156 35.2453H16.5035V18.7418C16.5004 18.565 16.5599 18.3927 16.6714 18.2555C16.7829 18.1182 16.9393 18.0248 17.113 17.9916ZM22.5049 50.9829C22.5048 50.9882 22.5048 50.9934 22.5048 50.9987C22.5048 53.4934 24.5111 55.4997 27.0058 55.4997C29.5005 55.4997 31.5068 53.4934 31.5068 50.9987C31.5068 48.5041 29.5005 46.4977 27.0058 46.4977C25.3539 46.4977 23.9162 47.3774 23.1333 48.6961C23.0947 48.761 23.0578 48.827 23.0224 48.894C22.9205 49.0874 22.8321 49.2893 22.7588 49.4984C22.7084 49.6418 22.6651 49.7886 22.6293 49.9383C22.5878 50.1116 22.5562 50.2889 22.5353 50.4696C22.5158 50.638 22.5055 50.8092 22.5049 50.9829ZM41.2823 47.9277V32.5963C41.2781 32.4228 41.3343 32.2532 41.4411 32.1164C41.548 31.9796 41.699 31.8841 41.8684 31.8462C41.9229 31.8402 41.9779 31.8402 42.0325 31.8462H59.2627C59.4617 31.8462 59.6525 31.9252 59.7932 32.0659C59.9338 32.2066 60.0129 32.3974 60.0129 32.5963V47.9277C60.0129 48.1267 59.9338 48.3175 59.7932 48.4582C59.6525 48.5988 59.4617 48.6779 59.2627 48.6779H42.0325C41.8335 48.6779 41.6427 48.5988 41.502 48.4582C41.3614 48.3175 41.2823 48.1267 41.2823 47.9277ZM42.7826 33.3465V47.1776H58.5126V33.3465H42.7826ZM15.7534 50.9987C15.7534 48.5041 13.7471 46.4977 11.2524 46.4977C8.75771 46.4977 6.75145 48.5041 6.75145 50.9987C6.75145 53.4934 8.75771 55.4997 11.2524 55.4997C13.7471 55.4997 15.7534 53.4934 15.7534 50.9987Z" fill="#F08310"/>
</svg>
