<svg width="48" height="57" viewBox="0 0 48 57" fill="none" xmlns="http://www.w3.org/2000/svg">
<path fill-rule="evenodd" clip-rule="evenodd" d="M14.4326 2.94751C12.2043 2.94751 10.6372 4.6843 10.6372 7.12204V8.80678C10.6372 11.2445 12.2043 12.9813 14.4326 12.9813C16.6608 12.9813 18.2279 11.2445 18.2279 8.80678V7.12204C18.2279 4.6843 16.6608 2.94751 14.4326 2.94751ZM8.63721 7.12204C8.63721 3.78356 10.9064 0.94751 14.4326 0.94751C17.9587 0.94751 20.2279 3.78356 20.2279 7.12204V8.80678C20.2279 12.1453 17.9587 14.9813 14.4326 14.9813C10.9064 14.9813 8.63721 12.1453 8.63721 8.80678V7.12204Z" fill="#F08310"/>
<path fill-rule="evenodd" clip-rule="evenodd" d="M8.43844 18.5913C6.97776 18.5913 5.84192 19.8029 5.84192 21.2014V36.8454C5.84192 38.9441 7.55567 40.6589 9.63727 40.6589H18.6239L26.1008 54.4186L24.3435 55.3735L17.4344 42.6589H9.63727C6.44398 42.6589 3.84192 40.0415 3.84192 36.8454V21.2014C3.84192 18.7492 5.82306 16.5913 8.43844 16.5913H12.5045L18.4987 23.8116H26.1275L26.2173 24.7125L25.2222 24.8116C26.2173 24.7125 26.2172 24.712 26.2173 24.7125L26.2177 24.7166L26.2182 24.7226L26.2198 24.7397C26.2209 24.7535 26.2224 24.7718 26.224 24.7944C26.2273 24.8396 26.231 24.902 26.2341 24.9793C26.2401 25.1335 26.2432 25.3487 26.2326 25.6052C26.2115 26.1118 26.1357 26.8103 25.9038 27.5264C25.6722 28.2419 25.2678 29.0258 24.5567 29.6333C23.8289 30.2551 22.8572 30.6251 21.6257 30.6251H14.4328H13.9509L8.85526 24.2315L10.4193 22.985L14.9144 28.6251H21.6257C22.4321 28.6251 22.929 28.3934 23.2577 28.1127C23.6031 27.8176 23.8431 27.3982 24.0011 26.9103C24.1225 26.5353 24.1854 26.1498 24.2155 25.8116H17.5596L11.5654 18.5913H8.43844Z" fill="#F08310"/>
<path fill-rule="evenodd" clip-rule="evenodd" d="M12.2338 28.4219H14.2338V33.4388H18.3888C20.3849 33.4388 22.9159 34.0588 23.7539 36.4727L32.1231 54.4747L30.3096 55.3178L21.8935 37.2151L21.8754 37.1607C21.4941 36.0122 20.2131 35.4388 18.3888 35.4388H12.2338V28.4219Z" fill="#F08310"/>
<path fill-rule="evenodd" clip-rule="evenodd" d="M2.24536 23.6084V39.2523C2.24536 41.9658 4.45159 44.2692 7.23956 44.2692H15.6314V46.2692H7.23956C3.31403 46.2692 0.245361 43.0371 0.245361 39.2523V23.6084H2.24536Z" fill="#F08310"/>
<path fill-rule="evenodd" clip-rule="evenodd" d="M7.43835 54.8961V45.269H9.43835V54.8961H7.43835Z" fill="#F08310"/>
<path fill-rule="evenodd" clip-rule="evenodd" d="M25.5519 12.2831C25.7298 11.9707 26.0616 11.7778 26.421 11.7778H45.6024C45.9551 11.7778 46.2816 11.9636 46.4619 12.2667C46.6422 12.5698 46.6494 12.9454 46.4811 13.2553L39.288 26.4925C39.113 26.8145 38.7759 27.015 38.4094 27.015H28.8187V25.015H37.8147L43.9209 13.7778H27.0024L22.4947 21.6962L20.7566 20.7068L25.5519 12.2831Z" fill="#F08310"/>
<path fill-rule="evenodd" clip-rule="evenodd" d="M48.0001 30.6252H13.2338V28.6252H48.0001V30.6252Z" fill="#F08310"/>
<path fill-rule="evenodd" clip-rule="evenodd" d="M14.4326 55.8962H2.44421V53.8962H14.4326V55.8962Z" fill="#F08310"/>
<path fill-rule="evenodd" clip-rule="evenodd" d="M30.5254 56.0996V29.6252H32.5254V56.0996H30.5254Z" fill="#F08310"/>
</svg>
