<svg width="54" height="62" viewBox="0 0 54 62" fill="none" xmlns="http://www.w3.org/2000/svg">
<path fill-rule="evenodd" clip-rule="evenodd" d="M20.6917 16.6998C23.0609 15.607 25.9644 15.0598 28.2263 15.0598C30.4881 15.0598 33.3917 15.607 35.7609 16.6998C38.0599 17.7603 40.262 19.5415 40.262 22.1908V30.7741C40.262 32.2732 39.5647 33.7385 38.5236 34.8175C37.4777 35.9015 36.0038 36.6789 34.3572 36.6789C33.8049 36.6789 33.3572 36.2311 33.3572 35.6789C33.3572 35.1266 33.8049 34.6789 34.3572 34.6789C35.3622 34.6789 36.3408 34.1994 37.0843 33.4288C37.8327 32.6532 38.262 31.6661 38.262 30.7741V22.1908C38.262 20.7936 37.0767 19.5093 34.9231 18.5159C32.8397 17.5549 30.2254 17.0598 28.2263 17.0598C26.2271 17.0598 23.6128 17.5549 21.5294 18.5159C19.3758 19.5093 18.1906 20.7936 18.1906 22.1908V35.6789C18.1906 36.2311 17.7428 36.6789 17.1906 36.6789C16.6383 36.6789 16.1906 36.2311 16.1906 35.6789V22.1908C16.1906 19.5415 18.3927 17.7603 20.6917 16.6998Z" fill="#F08310"/>
<path fill-rule="evenodd" clip-rule="evenodd" d="M34.3572 22.4167C34.9095 22.4167 35.3572 22.8645 35.3572 23.4167V51.6191C35.3572 52.1714 34.9095 52.6191 34.3572 52.6191C33.8049 52.6191 33.3572 52.1714 33.3572 51.6191V23.4167C33.3572 22.8645 33.8049 22.4167 34.3572 22.4167Z" fill="#F08310"/>
<path fill-rule="evenodd" clip-rule="evenodd" d="M22.0952 22.4167C22.6475 22.4167 23.0952 22.8645 23.0952 23.4167V35.6787C23.0952 36.2309 22.6475 36.6787 22.0952 36.6787C21.5429 36.6787 21.0952 36.2309 21.0952 35.6787V23.4167C21.0952 22.8645 21.5429 22.4167 22.0952 22.4167Z" fill="#F08310"/>
<path fill-rule="evenodd" clip-rule="evenodd" d="M22.0952 44.4883C22.6475 44.4883 23.0952 44.936 23.0952 45.4883V51.6192C23.0952 52.1715 22.6475 52.6192 22.0952 52.6192C21.5429 52.6192 21.0952 52.1715 21.0952 51.6192V45.4883C21.0952 44.936 21.5429 44.4883 22.0952 44.4883Z" fill="#F08310"/>
<path fill-rule="evenodd" clip-rule="evenodd" d="M28.2262 33.4526C28.7785 33.4526 29.2262 33.9004 29.2262 34.4526V51.6193C29.2262 52.1716 28.7785 52.6193 28.2262 52.6193C27.6739 52.6193 27.2262 52.1716 27.2262 51.6193V34.4526C27.2262 33.9004 27.6739 33.4526 28.2262 33.4526Z" fill="#F08310"/>
<path fill-rule="evenodd" clip-rule="evenodd" d="M11.2858 35.6787C11.2858 35.1264 11.7335 34.6787 12.2858 34.6787H23.3215C23.8738 34.6787 24.3215 35.1264 24.3215 35.6787V45.4882C24.3215 46.0405 23.8738 46.4882 23.3215 46.4882H12.2858C11.7335 46.4882 11.2858 46.0405 11.2858 45.4882V35.6787ZM13.2858 36.6787V44.4882H22.3215V36.6787H13.2858Z" fill="#F08310"/>
<path fill-rule="evenodd" clip-rule="evenodd" d="M15.6485 52.4317C15.877 52.9344 15.6547 53.5273 15.1519 53.7558L1.6638 59.8868C1.16102 60.1153 0.568171 59.893 0.339634 59.3902C0.111097 58.8874 0.333416 58.2946 0.836198 58.066L14.3243 51.9351C14.8271 51.7066 15.4199 51.9289 15.6485 52.4317Z" fill="#F08310"/>
<path fill-rule="evenodd" clip-rule="evenodd" d="M2.71873 53.1014C3.25452 53.2353 3.58029 53.7783 3.44634 54.3141L2.47451 58.2014L7.57707 59.2219C8.11863 59.3302 8.46985 59.857 8.36154 60.3986C8.25322 60.9402 7.7264 61.2914 7.18484 61.1831L1.05389 59.9569C0.785728 59.9032 0.551231 59.7421 0.404993 59.511C0.258755 59.28 0.213535 58.9991 0.279861 58.7338L1.50605 53.829C1.64 53.2932 2.18293 52.9674 2.71873 53.1014Z" fill="#F08310"/>
<path fill-rule="evenodd" clip-rule="evenodd" d="M0.339313 38.9441C0.56746 38.4411 1.16014 38.2183 1.6631 38.4465L7.61012 41.1441C8.11308 41.3723 8.33586 41.9649 8.10771 42.4679C7.87957 42.9709 7.28689 43.1936 6.78393 42.9655L0.836905 40.2679C0.333947 40.0397 0.111167 39.447 0.339313 38.9441Z" fill="#F08310"/>
<path fill-rule="evenodd" clip-rule="evenodd" d="M8.36154 37.9349C8.46985 38.4765 8.11863 39.0033 7.57707 39.1116L2.47451 40.1321L3.44634 44.0195C3.58029 44.5553 3.25452 45.0982 2.71873 45.2321C2.18293 45.3661 1.64 45.0403 1.50605 44.5045L0.279861 39.5998C0.213535 39.3345 0.258755 39.0536 0.404993 38.8225C0.551231 38.5914 0.785728 38.4303 1.05389 38.3767L7.18484 37.1505C7.7264 37.0422 8.25322 37.3934 8.36154 37.9349Z" fill="#F08310"/>
<path fill-rule="evenodd" clip-rule="evenodd" d="M38.3516 52.4317C38.5801 51.9289 39.173 51.7066 39.6758 51.9351L53.1639 58.066C53.6666 58.2946 53.889 58.8874 53.6604 59.3902C53.4319 59.893 52.839 60.1153 52.3363 59.8868L38.8482 53.7558C38.3454 53.5273 38.1231 52.9344 38.3516 52.4317Z" fill="#F08310"/>
<path fill-rule="evenodd" clip-rule="evenodd" d="M51.2813 53.1014C51.8171 52.9674 52.36 53.2932 52.494 53.829L53.7202 58.7338C53.7865 58.9991 53.7413 59.28 53.5951 59.511C53.4488 59.7421 53.2143 59.9032 52.9462 59.9569L46.8152 61.1831C46.2736 61.2914 45.7468 60.9402 45.6385 60.3986C45.5302 59.857 45.8814 59.3302 46.423 59.2219L51.5255 58.2014L50.5537 54.3141C50.4198 53.7783 50.7455 53.2353 51.2813 53.1014Z" fill="#F08310"/>
<path fill-rule="evenodd" clip-rule="evenodd" d="M53.6604 38.9434C53.889 39.4462 53.6666 40.039 53.1639 40.2675L39.6758 46.3985C39.173 46.627 38.5801 46.4047 38.3516 45.9019C38.1231 45.3992 38.3454 44.8063 38.8482 44.5778L52.3363 38.4468C52.839 38.2183 53.4319 38.4406 53.6604 38.9434Z" fill="#F08310"/>
<path fill-rule="evenodd" clip-rule="evenodd" d="M45.6385 37.9349C45.7468 37.3934 46.2736 37.0422 46.8152 37.1505L52.9462 38.3767C53.2143 38.4303 53.4488 38.5914 53.5951 38.8225C53.7413 39.0536 53.7865 39.3345 53.7202 39.5998L52.494 44.5045C52.36 45.0403 51.8171 45.3661 51.2813 45.2321C50.7455 45.0982 50.4198 44.5553 50.5537 44.0195L51.5255 40.1321L46.423 39.1116C45.8814 39.0033 45.5302 38.4765 45.6385 37.9349Z" fill="#F08310"/>
<path fill-rule="evenodd" clip-rule="evenodd" d="M23.9999 2.45446C25.0734 1.38815 26.5605 0.797852 28.2262 0.797852C29.8919 0.797852 31.379 1.38815 32.4524 2.45446C33.5268 3.52176 34.1309 5.01063 34.1309 6.70261V9.15499C34.1309 10.847 33.5268 12.3358 32.4524 13.4032C31.379 14.4695 29.8919 15.0598 28.2262 15.0598C26.5605 15.0598 25.0734 14.4695 23.9999 13.4032C22.9255 12.3358 22.3214 10.847 22.3214 9.15499V6.70261C22.3214 5.01063 22.9255 3.52176 23.9999 2.45446ZM25.4095 3.87335C24.7442 4.53421 24.3214 5.49772 24.3214 6.70261V9.15499C24.3214 10.3599 24.7442 11.3234 25.4095 11.9843C26.0757 12.6461 27.041 13.0598 28.2262 13.0598C29.4113 13.0598 30.3766 12.6461 31.0429 11.9843C31.7081 11.3234 32.1309 10.3599 32.1309 9.15499V6.70261C32.1309 5.49772 31.7081 4.53421 31.0429 3.87335C30.3766 3.2115 29.4113 2.79785 28.2262 2.79785C27.041 2.79785 26.0757 3.2115 25.4095 3.87335Z" fill="#F08310"/>
</svg>
