<svg width="52" height="56" viewBox="0 0 52 56" fill="none" xmlns="http://www.w3.org/2000/svg">
<path fill-rule="evenodd" clip-rule="evenodd" d="M4.3479 25.8956C4.3479 22.7053 6.5091 19.91 9.69571 19.91C12.8823 19.91 15.0435 22.7053 15.0435 25.8956V27.5188C15.0435 30.7091 12.8823 33.5044 9.69571 33.5044C6.5091 33.5044 4.3479 30.7091 4.3479 27.5188V25.8956ZM9.69571 21.91C7.88233 21.91 6.3479 23.5206 6.3479 25.8956V27.5188C6.3479 29.8938 7.88233 31.5044 9.69571 31.5044C11.5091 31.5044 13.0435 29.8938 13.0435 27.5188V25.8956C13.0435 23.5206 11.5091 21.91 9.69571 21.91Z" fill="#F08310"/>
<path fill-rule="evenodd" clip-rule="evenodd" d="M21.6522 2.19995C20.4165 2.19995 19.3914 3.19771 19.3914 4.67821V27.8666C19.3914 29.3471 20.4165 30.3449 21.6522 30.3449H23.8261C24.3784 30.3449 24.8261 30.7926 24.8261 31.3449V35.9826C24.8261 36.0802 24.8519 36.1265 24.8633 36.143C24.8768 36.1626 24.8897 36.169 24.8948 36.1708C24.8957 36.1711 24.8963 36.1713 24.8969 36.1714C24.8974 36.1712 24.898 36.1709 24.8988 36.1705C24.9009 36.1694 24.9047 36.1672 24.91 36.1632C24.9201 36.1556 24.9399 36.1383 24.9646 36.103C24.9829 36.0771 25.0023 36.052 25.023 36.0279L29.5882 30.6946C29.7782 30.4726 30.0557 30.3449 30.3479 30.3449H46.6522C48.4314 30.3449 50.0001 28.7674 50.0001 26.7072V4.67821C50.0001 3.19771 48.9749 2.19995 47.7392 2.19995H21.6522ZM17.3914 4.67821C17.3914 2.21669 19.1923 0.199951 21.6522 0.199951H47.7392C50.1991 0.199951 52.0001 2.21669 52.0001 4.67821V26.7072C52.0001 29.7484 49.6556 32.3449 46.6522 32.3449H30.8082L26.5692 37.2971C25.9851 38.0899 25.0455 38.347 24.2248 38.0552C23.4022 37.7627 22.8261 36.9678 22.8261 35.9826V32.3449H21.6522C19.1923 32.3449 17.3914 30.3281 17.3914 27.8666V4.67821Z" fill="#F08310"/>
<path fill-rule="evenodd" clip-rule="evenodd" d="M3.02346 38.5291C2.35385 39.5171 2 40.925 2 42.4753C2 43.4255 2.23294 43.9588 2.70895 45.0485C2.85703 45.3875 3.02864 45.7804 3.22407 46.2564L4.1707 48.3881C4.61188 49.1109 4.91656 49.4147 5.14775 49.5659C5.36553 49.7083 5.60576 49.7754 6.10607 49.8288C6.14251 49.8327 6.17871 49.8386 6.2145 49.8464L9.91016 50.658C10.4496 50.7765 10.7909 51.3098 10.6724 51.8493C10.5539 52.3887 10.0206 52.73 9.48117 52.6115L5.83811 51.8114C5.26746 51.7479 4.65819 51.6353 4.05335 51.2399C3.44763 50.8439 2.94609 50.2311 2.42613 49.3683C2.40471 49.3328 2.38552 49.2959 2.36868 49.258L1.39041 47.0551C1.38653 47.0464 1.38278 47.0376 1.37915 47.0287C1.23616 46.6801 1.09359 46.3569 0.957315 46.0479C0.431794 44.8565 0 43.8776 0 42.4753C0 40.6633 0.407025 38.8248 1.36785 37.407C2.35759 35.9466 3.90916 34.9825 6.00001 34.9825H12.3044C12.3241 34.9825 12.3438 34.9831 12.3635 34.9843C13.374 35.0442 14.3139 35.1674 15.1675 35.5001C16.0486 35.8435 16.7909 36.3908 17.4402 37.222L19.6133 40.0036L19.6141 40.0045C19.6141 40.0045 19.6141 40.0046 18.8261 40.6202C18.0381 41.2359 18.0381 41.2359 18.0381 41.2359L15.8642 38.4533C15.4266 37.8931 14.9732 37.5709 14.4412 37.3636C13.8876 37.1478 13.2055 37.0391 12.2744 36.9825H6.00001C4.61259 36.9825 3.66415 37.5837 3.02346 38.5291ZM19.4418 41.4083C19.0065 41.7483 18.3781 41.6711 18.0381 41.2359L18.8261 40.6202L19.6141 40.0045C19.9541 40.4397 19.877 41.0683 19.4418 41.4083Z" fill="#F08310"/>
<path fill-rule="evenodd" clip-rule="evenodd" d="M5.76427 41.1886C6.28277 40.9984 6.85728 41.2646 7.04749 41.7831L8.01808 44.4289C8.20942 44.8844 8.36883 45.1342 8.523 45.2987C8.66716 45.4524 8.85412 45.5822 9.18642 45.7164L11.6739 46.6393C12.1917 46.8314 12.4557 47.4069 12.2636 47.9247C12.0715 48.4425 11.496 48.7065 10.9782 48.5144L8.47822 47.5868C8.47034 47.5839 8.46249 47.5809 8.45468 47.5777C7.92432 47.3656 7.46165 47.0908 7.06392 46.6665C6.67677 46.2536 6.40371 45.7544 6.16386 45.1788C6.15832 45.1655 6.15307 45.1521 6.14811 45.1386L5.16985 42.4719C4.97964 41.9534 5.24577 41.3789 5.76427 41.1886Z" fill="#F08310"/>
<path fill-rule="evenodd" clip-rule="evenodd" d="M18.7389 44.4819C18.9172 44.337 19.1399 44.2579 19.3696 44.2579H22.8478C23.6545 44.2579 24.2855 44.7459 24.6057 45.324C24.9218 45.8946 24.9994 46.6648 24.6014 47.3513L23.8818 48.8864C23.6654 49.4771 23.3221 49.9873 22.8323 50.3508C22.3247 50.7274 21.7279 50.8955 21.1087 50.8955V49.8955V48.8955C21.3591 48.8955 21.5232 48.8317 21.6405 48.7446C21.7618 48.6546 21.9023 48.488 22.0131 48.1726C22.0242 48.141 22.0369 48.1101 22.0511 48.0798L22.812 46.4566C22.829 46.4203 22.8482 46.3851 22.8694 46.3511C22.872 46.3469 22.8721 46.3457 22.8718 46.3466C22.8717 46.3473 22.872 46.3464 22.872 46.3432C22.8719 46.3353 22.8691 46.3165 22.8563 46.2932C22.8465 46.2757 22.8358 46.2642 22.8286 46.2579H19.763C19.7537 46.2674 19.7442 46.2771 19.7345 46.2871C19.5561 46.4712 19.318 46.7438 19.0863 47.0897C18.7564 47.5824 18.4586 48.1941 18.342 48.8955H21.1087V49.8955V50.8955H17.3043C16.7823 50.8955 16.348 50.4939 16.3074 49.9734C16.1754 48.2836 16.8051 46.9019 17.4245 45.9768C17.7364 45.5112 18.0553 45.1461 18.2981 44.8955C18.42 44.7696 18.5241 44.6712 18.6005 44.602C18.6388 44.5673 18.6702 44.5398 18.6937 44.5198L18.7227 44.4952L18.7325 44.4871L18.7361 44.4842L18.7376 44.4829L18.7389 44.4819C18.7392 44.4816 18.7389 44.4819 19.3696 45.2579L18.7389 44.4819Z" fill="#F08310"/>
<path fill-rule="evenodd" clip-rule="evenodd" d="M14.1946 39.9306C14.4915 39.7458 14.8624 39.6202 15.2392 39.6202H22.8478C24.4692 39.6202 25.1991 41.3094 24.6264 42.5443L23.2158 45.6693L21.3929 44.8465L22.806 41.7161L22.8119 41.703C22.829 41.6666 22.8286 41.638 22.8247 41.6202H15.277L10.3838 52.291C10.3667 52.3275 10.3671 52.356 10.371 52.3738H17.9187L19.2185 49.4852L21.0424 50.3059L19.7568 53.1628C19.5993 53.5955 19.2816 53.8889 19.0011 54.0634C18.7042 54.2482 18.3333 54.3738 17.9565 54.3738H10.3479C8.72511 54.3738 7.99539 52.6817 8.57077 51.4465L13.4404 40.8271C13.5985 40.3967 13.9149 40.1046 14.1946 39.9306Z" fill="#F08310"/>
<path fill-rule="evenodd" clip-rule="evenodd" d="M4.3479 55.6926V50.7072H6.3479V55.6926H4.3479Z" fill="#F08310"/>
<path fill-rule="evenodd" clip-rule="evenodd" d="M15.2174 55.6926V53.3738H17.2174V55.6926H15.2174Z" fill="#F08310"/>
<path fill-rule="evenodd" clip-rule="evenodd" d="M34.1521 9.47534C34.7044 9.47534 35.1521 9.92306 35.1521 10.4753V20.91C35.1521 21.4623 34.7044 21.91 34.1521 21.91C33.5998 21.91 33.1521 21.4623 33.1521 20.91V10.4753C33.1521 9.92306 33.5998 9.47534 34.1521 9.47534Z" fill="#F08310"/>
<path fill-rule="evenodd" clip-rule="evenodd" d="M28.2609 15.6927C28.2609 15.1405 28.7086 14.6927 29.2609 14.6927H39.0435C39.5958 14.6927 40.0435 15.1405 40.0435 15.6927C40.0435 16.245 39.5958 16.6927 39.0435 16.6927H29.2609C28.7086 16.6927 28.2609 16.245 28.2609 15.6927Z" fill="#F08310"/>
</svg>
