<svg width="47" height="55" viewBox="0 0 47 55" fill="none" xmlns="http://www.w3.org/2000/svg">
<path d="M39.453 48.2779C38.3381 48.2779 37.3825 49.2336 37.3825 50.3484C37.3825 51.4633 38.3381 52.419 39.453 52.419C40.5679 52.419 41.5235 51.4633 41.5235 50.3484C41.5235 49.2336 40.5679 48.2779 39.453 48.2779ZM27.5077 17.0608C27.5077 18.335 25.4371 18.335 25.4371 17.0608V12.7605H21.1368C19.7034 12.7605 19.7034 10.69 21.1368 10.69H25.4371V6.38969C25.4371 4.95626 27.5077 4.95626 27.5077 6.38969V10.69C28.9411 10.69 30.3745 10.69 31.808 10.69C33.2414 10.69 33.2414 12.7605 31.808 12.7605H27.5077V17.0608ZM26.552 0.337402C32.7636 0.337402 37.8603 5.43407 37.8603 11.6456C37.8603 17.8572 32.7636 22.9539 26.552 22.9539C20.3405 22.9539 15.2438 17.8572 15.2438 11.6456C15.2438 5.43407 20.3405 0.337402 26.552 0.337402ZM26.552 2.56719C21.4554 2.56719 17.3143 6.54897 17.3143 11.6456C17.3143 16.7423 21.4554 20.8833 26.552 20.8833C31.4894 20.8833 35.6305 16.7423 35.6305 11.6456C35.6305 6.54897 31.4894 2.56719 26.552 2.56719ZM1.54651 2.40792C0.113076 2.40792 0.113076 0.337402 1.54651 0.337402C2.97995 0.337402 4.41339 0.337402 5.84683 0.337402C9.19151 0.337402 9.19151 0.337402 9.19151 3.68209V32.1916H39.9308C40.5679 32.1916 41.0457 32.0323 41.6828 31.873C42.6384 31.3952 43.4347 30.5989 43.9126 29.6432C44.0718 29.0062 44.2311 28.5283 44.2311 27.8913V11.9642C44.2311 10.69 46.3016 10.69 46.3016 11.9642V27.8913C46.3016 28.8469 46.1423 29.6432 45.8238 30.4396C45.1867 31.873 43.9126 33.1472 42.3198 33.7843C41.6828 34.1028 40.7271 34.2621 39.9308 34.2621H9.19151V38.5624C9.19151 40.9515 11.1028 42.8627 13.3326 42.8627H42.6384C44.0718 42.8627 44.0718 44.9332 42.6384 44.9332H13.3326C9.98787 44.9332 6.96172 43.1813 6.96172 38.5624V3.68209C6.96172 2.40792 6.96172 2.40792 5.84683 2.40792C4.41339 2.40792 2.97995 2.40792 1.54651 2.40792ZM13.9696 46.2074C16.1994 46.2074 18.1107 47.9594 18.1107 50.3484C18.1107 52.7375 16.1994 54.4895 13.9696 54.4895C11.5806 54.4895 9.66933 52.7375 9.66933 50.3484C9.66933 47.9594 11.5806 46.2074 13.9696 46.2074ZM13.9696 48.2779C12.6955 48.2779 11.7398 49.2336 11.7398 50.3484C11.7398 51.4633 12.6955 52.419 13.9696 52.419C15.0845 52.419 16.0402 51.4633 16.0402 50.3484C16.0402 49.2336 15.0845 48.2779 13.9696 48.2779ZM39.453 46.2074C41.842 46.2074 43.594 47.9594 43.594 50.3484C43.594 52.7375 41.842 54.4895 39.453 54.4895C37.0639 54.4895 35.3119 52.7375 35.3119 50.3484C35.3119 47.9594 37.0639 46.2074 39.453 46.2074Z" fill="#F08310"/>
<path fill-rule="evenodd" clip-rule="evenodd" d="M25.7313 12.4664V17.0608C25.7313 17.291 25.8209 17.4466 25.9472 17.5502C26.0805 17.6596 26.2702 17.7223 26.4724 17.7223C26.6746 17.7223 26.8643 17.6596 26.9976 17.5502C27.1239 17.4466 27.2135 17.291 27.2135 17.0608V12.4664H31.808C32.0903 12.4664 32.2787 12.367 32.3982 12.2375C32.5219 12.1035 32.5889 11.9183 32.5889 11.7253C32.5889 11.5322 32.5219 11.3471 32.3982 11.213C32.2787 11.0835 32.0903 10.9841 31.808 10.9841H27.2135V6.38969C27.2135 6.10735 27.1141 5.91902 26.9846 5.7995C26.8506 5.67577 26.6655 5.60873 26.4724 5.60873C26.2793 5.60873 26.0942 5.67577 25.9602 5.7995C25.8307 5.91902 25.7313 6.10735 25.7313 6.38969V10.9841H21.1368C20.8545 10.9841 20.6661 11.0835 20.5466 11.213C20.4229 11.3471 20.3559 11.5322 20.3559 11.7253C20.3559 11.9183 20.4229 12.1035 20.5466 12.2375C20.6661 12.367 20.8545 12.4664 21.1368 12.4664H25.7313ZM8.8974 32.4857V3.68209C8.8974 2.83873 8.89696 2.23115 8.84693 1.78092C8.79667 1.32852 8.70161 1.09961 8.56546 0.963461C8.4293 0.827308 8.20039 0.732248 7.74799 0.681982C7.29776 0.631956 6.69018 0.63152 5.84683 0.63152H1.54651C1.26417 0.63152 1.07584 0.730943 0.956324 0.860415C0.832591 0.994459 0.765553 1.17959 0.765553 1.37266C0.765553 1.56574 0.832591 1.75087 0.956324 1.88491C1.07584 2.01438 1.26417 2.11381 1.54651 2.11381L5.86606 2.11381C6.12834 2.11379 6.353 2.11378 6.52843 2.13606C6.71017 2.15914 6.90296 2.21266 7.04371 2.37352C7.17723 2.52611 7.21841 2.7254 7.23704 2.917C7.25585 3.11048 7.25585 3.36117 7.25584 3.66624V38.5624C7.25584 40.8032 7.98695 42.308 9.08522 43.2574C10.1909 44.2132 11.7073 44.6391 13.3326 44.6391H42.6384C42.9207 44.6391 43.1091 44.5397 43.2286 44.4102C43.3523 44.2762 43.4193 44.0911 43.4193 43.898C43.4193 43.7049 43.3523 43.5198 43.2286 43.3857C43.1091 43.2563 42.9207 43.1568 42.6384 43.1568H13.3326C10.9332 43.1568 8.8974 41.1067 8.8974 38.5624V33.968H39.9308C40.7007 33.968 41.6063 33.8122 42.1883 33.5212L42.1993 33.5157L42.2106 33.5112C43.7295 32.9036 44.9457 31.6873 45.5528 30.3252C45.8558 29.5661 46.0075 28.8082 46.0075 27.8913V11.9642C46.0075 11.734 45.9178 11.5784 45.7915 11.4748C45.6582 11.3654 45.4686 11.3027 45.2664 11.3027C45.0642 11.3027 44.8745 11.3654 44.7412 11.4748C44.6149 11.5784 44.5252 11.734 44.5252 11.9642V27.8913C44.5252 28.46 44.4049 28.9193 44.2761 29.4114C44.25 29.5107 44.2237 29.6114 44.1979 29.7146L44.1901 29.7459L44.1756 29.7748C43.6693 30.7873 42.8268 31.6298 41.8143 32.1361L41.7854 32.1505L41.7541 32.1584C41.6509 32.1842 41.5503 32.2105 41.4509 32.2365C40.9588 32.3654 40.4995 32.4857 39.9308 32.4857H8.8974ZM45.8238 30.4396C45.1867 31.873 43.9126 33.1472 42.3198 33.7843C41.6828 34.1028 40.7271 34.2621 39.9308 34.2621H9.19151V38.5624C9.19151 40.9515 11.1028 42.8627 13.3326 42.8627H42.6384C44.0718 42.8627 44.0718 44.9332 42.6384 44.9332H13.3326C9.98787 44.9332 6.96172 43.1813 6.96172 38.5624V3.68209C6.96172 3.01667 6.96172 2.69876 6.80292 2.54687C6.65765 2.40792 6.37948 2.40792 5.84683 2.40792H1.54651C0.113076 2.40792 0.113076 0.337402 1.54651 0.337402H5.84683C7.51917 0.337402 8.35534 0.337402 8.77343 0.755488C9.19151 1.17357 9.19151 2.00975 9.19151 3.68209V32.1916H39.9308C40.4586 32.1916 40.877 32.0823 41.3673 31.9542C41.4688 31.9277 41.5735 31.9004 41.6828 31.873C42.6384 31.3952 43.4347 30.5989 43.9126 29.6432C43.9399 29.5339 43.9672 29.4293 43.9937 29.3278C44.1218 28.8375 44.2311 28.419 44.2311 27.8913V11.9642C44.2311 10.69 46.3016 10.69 46.3016 11.9642V27.8913C46.3016 28.8469 46.1423 29.6432 45.8238 30.4396ZM37.0883 50.3484C37.0883 49.0711 38.1756 47.9838 39.453 47.9838C40.7303 47.9838 41.8176 49.0711 41.8176 50.3484C41.8176 51.6258 40.7303 52.7131 39.453 52.7131C38.1756 52.7131 37.0883 51.6258 37.0883 50.3484ZM27.5077 12.7605H31.808C33.2414 12.7605 33.2414 10.69 31.808 10.69H27.5077V6.38969C27.5077 4.95626 25.4371 4.95626 25.4371 6.38969V10.69H21.1368C19.7034 10.69 19.7034 12.7605 21.1368 12.7605H25.4371V17.0608C25.4371 18.335 27.5077 18.335 27.5077 17.0608V12.7605ZM37.5661 11.6456C37.5661 5.59651 32.6012 0.63152 26.552 0.63152C20.5029 0.63152 15.5379 5.59651 15.5379 11.6456C15.5379 17.6948 20.5029 22.6597 26.552 22.6597C32.6012 22.6597 37.5661 17.6948 37.5661 11.6456ZM17.0202 11.6456C17.0202 6.37989 21.2997 2.27308 26.552 2.27308C31.6485 2.27308 35.9246 6.38318 35.9246 11.6456C35.9246 16.9014 31.6552 21.1775 26.552 21.1775C21.2929 21.1775 17.0202 16.9047 17.0202 11.6456ZM17.8166 50.3484C17.8166 48.1292 16.0444 46.5015 13.9696 46.5015C11.7282 46.5015 9.96344 48.1362 9.96344 50.3484C9.96344 52.5607 11.7282 54.1954 13.9696 54.1954C16.0444 54.1954 17.8166 52.5677 17.8166 50.3484ZM11.4457 50.3484C11.4457 49.0571 12.5474 47.9838 13.9696 47.9838C15.247 47.9838 16.3343 49.0711 16.3343 50.3484C16.3343 51.6258 15.247 52.7131 13.9696 52.7131C12.5474 52.7131 11.4457 51.6398 11.4457 50.3484ZM43.2999 50.3484C43.2999 48.1218 41.6796 46.5015 39.453 46.5015C37.2263 46.5015 35.606 48.1218 35.606 50.3484C35.606 52.5751 37.2263 54.1954 39.453 54.1954C41.6796 54.1954 43.2999 52.5751 43.2999 50.3484ZM37.3825 50.3484C37.3825 49.2336 38.3381 48.2779 39.453 48.2779C40.5679 48.2779 41.5235 49.2336 41.5235 50.3484C41.5235 51.4633 40.5679 52.419 39.453 52.419C38.3381 52.419 37.3825 51.4633 37.3825 50.3484ZM37.8603 11.6456C37.8603 5.43407 32.7636 0.337402 26.552 0.337402C20.3405 0.337402 15.2438 5.43407 15.2438 11.6456C15.2438 17.8572 20.3405 22.9539 26.552 22.9539C32.7636 22.9539 37.8603 17.8572 37.8603 11.6456ZM17.3143 11.6456C17.3143 6.54897 21.4554 2.56719 26.552 2.56719C31.4894 2.56719 35.6305 6.54897 35.6305 11.6456C35.6305 16.7423 31.4894 20.8833 26.552 20.8833C21.4554 20.8833 17.3143 16.7423 17.3143 11.6456ZM18.1107 50.3484C18.1107 47.9594 16.1994 46.2074 13.9696 46.2074C11.5806 46.2074 9.66933 47.9594 9.66933 50.3484C9.66933 52.7375 11.5806 54.4895 13.9696 54.4895C16.1994 54.4895 18.1107 52.7375 18.1107 50.3484ZM11.7398 50.3484C11.7398 49.2336 12.6955 48.2779 13.9696 48.2779C15.0845 48.2779 16.0402 49.2336 16.0402 50.3484C16.0402 51.4633 15.0845 52.419 13.9696 52.419C12.6955 52.419 11.7398 51.4633 11.7398 50.3484ZM43.594 50.3484C43.594 47.9594 41.842 46.2074 39.453 46.2074C37.0639 46.2074 35.3119 47.9594 35.3119 50.3484C35.3119 52.7375 37.0639 54.4895 39.453 54.4895C41.842 54.4895 43.594 52.7375 43.594 50.3484Z" fill="#F08310"/>
</svg>
